<svg width="48" height="48" viewBox="0 0 48 48" fill="none" xmlns="http://www.w3.org/2000/svg">
<rect width="48" height="48" rx="4" fill="#EDFBCB"/>
<path d="M19 29.3672H27V26.8672H14.25C14.0177 26.8672 13.9015 26.8672 13.8049 26.8864C13.4082 26.9653 13.0981 27.2754 13.0192 27.6721C13 27.7687 13 27.8849 13 28.1172C13 28.3495 13 28.4657 13.0192 28.5623C13.0981 28.959 13.4082 29.2691 13.8049 29.348C13.9015 29.3672 14.0177 29.3672 14.25 29.3672H15" stroke="black" stroke-linecap="round" stroke-linejoin="round"/>
<path d="M29 29.3672H27V21.3672C27 20.4244 27 19.953 27.2929 19.6601C27.5858 19.3672 28.0572 19.3672 29 19.3672H29.7352C30.8414 19.3672 31.3945 19.3672 31.853 19.6268C32.3115 19.8864 32.5961 20.3607 33.1652 21.3092L34.43 23.4172C34.7132 23.8892 34.8549 24.1253 34.9274 24.3873C35 24.6493 35 24.9246 35 25.4751V27.3672C35 28.31 35 28.7814 34.7071 29.0743C34.4142 29.3672 33.9428 29.3672 33 29.3672M29 29.3672C29 30.4718 29.8954 31.3672 31 31.3672C32.1046 31.3672 33 30.4718 33 29.3672M29 29.3672C29 28.2626 29.8954 27.3672 31 27.3672C32.1046 27.3672 33 28.2626 33 29.3672M34.5 24.3672H32C31.0572 24.3672 30.5858 24.3672 30.2929 24.0743C30 23.7814 30 23.31 30 22.3672V21.8672" stroke="black" stroke-linecap="round" stroke-linejoin="round"/>
<path d="M19 29.3672C19 30.4718 18.1046 31.3672 17 31.3672C15.8954 31.3672 15 30.4718 15 29.3672C15 28.2626 15.8954 27.3672 17 27.3672C18.1046 27.3672 19 28.2626 19 29.3672Z" stroke="black" stroke-linecap="round" stroke-linejoin="round"/>
<path d="M13.2032 18.4194C13.072 19.0228 13 19.6798 13 20.3672C13 21.0546 13.072 21.7116 13.2032 22.315C13.3722 23.0927 13.4568 23.4816 14.0062 23.9244C14.5556 24.3672 15.1078 24.3672 16.2123 24.3672H21.2877C22.3922 24.3672 22.9444 24.3672 23.4938 23.9244C24.0432 23.4816 24.1278 23.0927 24.2968 22.315C24.428 21.7116 24.5 21.0546 24.5 20.3672C24.5 19.6798 24.428 19.0228 24.2968 18.4194C24.1278 17.6417 24.0432 17.2528 23.4938 16.81C22.9444 16.3672 22.3922 16.3672 21.2877 16.3672H16.2123C15.1078 16.3672 14.5556 16.3672 14.0062 16.81C13.4568 17.2528 13.3722 17.6417 13.2032 18.4194Z" stroke="black" stroke-linecap="round" stroke-linejoin="round"/>
<path d="M20.75 16.3672V24.3672M16.75 24.3672V16.3672" stroke="black" stroke-linecap="round" stroke-linejoin="round"/>
</svg>
